# xmcd
#
# Track frame offsets: 
#        150
#        6552
#        27558
#        50726
#        73660
#        92785
#        128989
#        153280
#        181831
#        203312
#        230340
#        254716
#        275489
#        302830
#
# Disc length: 4339 seconds
#
# Revision: 0
# Processed by: cddbd v1.5.2PL0 Copyright (c) Steve Scherf et al.
# Submitted via: ExactAudioCopy v0.99pb5
#
DISCID=c610f10e
DTITLE=The Notting Hillbillies - Ronnie Scott's Club, 1 August 1998 - 
DTITLE=CD1
DYEAR=1998
DGENRE=Country
TTITLE0=Intro
TTITLE1=Run me down
TTITLE2=One way gal
TTITLE3=Good rockin' tonight
TTITLE4=Your own sweet way
TTITLE5=Railroad worksong
TTITLE6=Why worry
TTITLE7=Water of love
TTITLE8=Rope stretching
TTITLE9=Hobo's lullaby
TTITLE10=Meet me in the bottom
TTITLE11=Denomination blues
TTITLE12=K.C. Moan
TTITLE13=Can't be satisfied
EXTD=
EXTT0=
EXTT1=
EXTT2=
EXTT3=
EXTT4=
EXTT5=
EXTT6=
EXTT7=
EXTT8=
EXTT9=
EXTT10=
EXTT11=
EXTT12=
EXTT13=
PLAYORDER=
